<?xml version="1.0" encoding="utf-8"?>
<!-- Generator: Adobe Illustrator 26.3.1, SVG Export Plug-In . SVG Version: 6.00 Build 0)  -->
<svg version="1.1" id="Layer_1" xmlns="http://www.w3.org/2000/svg" xmlns:xlink="http://www.w3.org/1999/xlink" x="0px" y="0px"
	 viewBox="0 0 286 61.8" style="enable-background:new 0 0 286 61.8;" xml:space="preserve">
<style type="text/css">
	.st0{fill:none;}
	.st1{fill:#C99911;}
	.st2{fill:#828487;}
	.st3{fill:url(#SVGID_1_);}
</style>
<pattern  y="61.8" width="80.7" height="80.7" patternUnits="userSpaceOnUse" id="New_Pattern_Swatch_1" viewBox="0 -80.7 80.7 80.7" style="overflow:visible;">
	<g>
		<rect y="-80.7" class="st0" width="80.7" height="80.7"/>
		<g>
			<rect y="-80.7" class="st1" width="80.7" height="80.7"/>
		</g>
	</g>
</pattern>
<g>
	<g>
		<g>
			<g>
				<path class="st2" d="M7.5,57.6L4.4,45.8H6l1.8,7.8C8,54.4,8.2,55.2,8.3,56c0.3-1.3,0.5-2,0.5-2.2l2.2-8h1.9l1.7,6
					c0.4,1.5,0.7,2.9,0.9,4.2c0.2-0.7,0.3-1.6,0.6-2.6l1.9-7.6h1.6l-3.2,11.8h-1.5l-2.5-9c-0.2-0.8-0.3-1.2-0.4-1.4
					c-0.1,0.5-0.2,1-0.3,1.4l-2.5,9C9.2,57.6,7.5,57.6,7.5,57.6z"/>
			</g>
			<g>
				<path class="st2" d="M20.6,51.8c0-2,0.5-3.5,1.6-4.6s2.4-1.7,4.1-1.7c1.1,0,2.1,0.3,3,0.8s1.5,1.2,2,2.2c0.5,0.9,0.7,2,0.7,3.2
					s-0.2,2.3-0.7,3.2s-1.2,1.7-2.1,2.1c-0.9,0.5-1.8,0.7-2.9,0.7s-2.1-0.3-3-0.8s-1.5-1.3-2-2.2C20.8,53.9,20.6,52.9,20.6,51.8z
					 M22.2,51.9c0,1.4,0.4,2.5,1.1,3.4c0.8,0.8,1.7,1.2,2.9,1.2c1.2,0,2.1-0.4,2.9-1.2s1.1-2,1.1-3.5c0-1-0.2-1.8-0.5-2.5
					s-0.8-1.3-1.4-1.7S27,47,26.2,47c-1.1,0-2.1,0.4-2.9,1.1S22.2,50.1,22.2,51.9z"/>
			</g>
			<g>
				<path class="st2" d="M33.9,57.6V45.8h5.2c1.1,0,1.9,0.1,2.4,0.3s1,0.6,1.3,1.1s0.5,1.1,0.5,1.8c0,0.8-0.3,1.5-0.8,2.1
					S41.1,52,40,52.2c0.4,0.2,0.7,0.4,0.9,0.6c0.5,0.4,0.9,0.9,1.3,1.6l2.1,3.2h-2l-1.6-2.5c-0.5-0.7-0.8-1.3-1.1-1.6
					c-0.3-0.4-0.6-0.6-0.8-0.8s-0.5-0.3-0.7-0.3s-0.5-0.1-0.9-0.1h-1.8v5.2h-1.5V57.6z M35.5,51h3.4c0.7,0,1.3-0.1,1.7-0.2
					c0.4-0.1,0.7-0.4,0.9-0.7s0.3-0.7,0.3-1.1c0-0.6-0.2-1-0.6-1.4c-0.4-0.4-1-0.5-1.9-0.5h-3.7V51H35.5z"/>
			</g>
			<g>
				<path class="st2" d="M45.7,57.6V45.8h1.6v10.4h5.8v1.4H45.7z"/>
			</g>
			<g>
				<path class="st2" d="M55,57.6V45.8h4.1c0.9,0,1.6,0.1,2.1,0.2c0.7,0.2,1.3,0.4,1.7,0.8c0.6,0.5,1.1,1.2,1.4,2
					c0.3,0.8,0.5,1.8,0.5,2.8c0,0.9-0.1,1.7-0.3,2.4c-0.2,0.7-0.5,1.3-0.8,1.7c-0.3,0.5-0.7,0.8-1.1,1.1c-0.4,0.3-0.9,0.5-1.4,0.6
					c-0.6,0.1-1.2,0.2-1.9,0.2H55z M56.6,56.2h2.5c0.8,0,1.4-0.1,1.8-0.2c0.4-0.1,0.8-0.3,1.1-0.6c0.4-0.4,0.7-0.9,0.9-1.5
					s0.3-1.4,0.3-2.3c0-1.2-0.2-2.2-0.6-2.9c-0.4-0.7-0.9-1.1-1.5-1.3c-0.4-0.2-1.1-0.2-2-0.2h-2.5V56.2z"/>
			</g>
			<g>
				<path class="st2" d="M66.7,47.3v-1.7h1.6V47c0,0.7-0.1,1.2-0.2,1.6c-0.2,0.4-0.6,0.8-1.1,1L66.5,49c0.3-0.1,0.5-0.3,0.6-0.6
					s0.2-0.6,0.2-1.1C67.3,47.3,66.7,47.3,66.7,47.3z"/>
			</g>
			<g>
				<path class="st2" d="M70.1,53.8l1.5-0.1c0.1,0.6,0.2,1.1,0.5,1.5s0.7,0.7,1.2,0.9s1.1,0.4,1.8,0.4c0.6,0,1.1-0.1,1.6-0.3
					s0.8-0.4,1-0.7s0.3-0.6,0.3-1s-0.1-0.7-0.3-1c-0.2-0.3-0.6-0.5-1.1-0.7c-0.3-0.1-1-0.3-2.1-0.6s-1.8-0.5-2.3-0.7
					c-0.6-0.3-1-0.7-1.3-1.1s-0.4-0.9-0.4-1.5s0.2-1.2,0.5-1.7s0.8-0.9,1.5-1.2s1.4-0.4,2.2-0.4c0.9,0,1.6,0.1,2.3,0.4
					s1.2,0.7,1.5,1.2c0.4,0.5,0.6,1.2,0.6,1.9l-1.5,0.1c-0.1-0.7-0.4-1.3-0.8-1.7c-0.5-0.4-1.2-0.6-2.1-0.6s-1.6,0.2-2.1,0.5
					c-0.4,0.3-0.6,0.8-0.6,1.3c0,0.4,0.2,0.8,0.5,1c0.3,0.3,1.1,0.6,2.4,0.8c1.3,0.3,2.1,0.5,2.6,0.8c0.7,0.3,1.2,0.7,1.5,1.2
					s0.5,1,0.5,1.7c0,0.6-0.2,1.2-0.5,1.8c-0.4,0.6-0.9,1-1.6,1.3s-1.4,0.5-2.3,0.5c-1.1,0-2-0.2-2.7-0.5s-1.3-0.8-1.7-1.4
					S70.1,54.6,70.1,53.8z"/>
			</g>
			<g>
				<path class="st2" d="M86.3,57.6V45.8h8v1.4h-6.4v3.7h5.5v1.4h-5.5v5.4h-1.6V57.6z"/>
			</g>
			<g>
				<path class="st2" d="M96.6,57.6V45.8h1.6v11.8H96.6z"/>
			</g>
			<g>
				<path class="st2" d="M100.9,57.6V45.8h5.2c1.1,0,1.9,0.1,2.4,0.3s1,0.6,1.3,1.1s0.5,1.1,0.5,1.8c0,0.8-0.3,1.5-0.8,2.1
					s-1.4,0.9-2.5,1.1c0.4,0.2,0.7,0.4,0.9,0.6c0.5,0.4,0.9,0.9,1.3,1.6l2.1,3.2h-2l-1.6-2.5c-0.5-0.7-0.8-1.3-1.1-1.6
					c-0.3-0.4-0.6-0.6-0.8-0.8s-0.5-0.3-0.7-0.3s-0.5-0.1-0.9-0.1h-1.8v5.2h-1.5V57.6z M102.5,51h3.4c0.7,0,1.3-0.1,1.7-0.2
					c0.4-0.1,0.7-0.4,0.9-0.7c0.2-0.3,0.3-0.7,0.3-1.1c0-0.6-0.2-1-0.6-1.4s-1-0.5-1.9-0.5h-3.7V51H102.5z"/>
			</g>
			<g>
				<path class="st2" d="M112.3,53.8l1.5-0.1c0.1,0.6,0.2,1.1,0.5,1.5s0.7,0.7,1.2,0.9s1.1,0.4,1.8,0.4c0.6,0,1.1-0.1,1.6-0.3
					s0.8-0.4,1-0.7s0.3-0.6,0.3-1s-0.1-0.7-0.3-1c-0.2-0.3-0.6-0.5-1.1-0.7c-0.3-0.1-1-0.3-2.1-0.6s-1.8-0.5-2.3-0.7
					c-0.6-0.3-1-0.7-1.3-1.1s-0.4-0.9-0.4-1.5s0.2-1.2,0.5-1.7s0.8-0.9,1.5-1.2s1.4-0.4,2.2-0.4c0.9,0,1.6,0.1,2.3,0.4
					s1.2,0.7,1.5,1.2c0.4,0.5,0.6,1.2,0.6,1.9l-1.5,0.1c-0.1-0.7-0.4-1.3-0.8-1.7c-0.5-0.4-1.2-0.6-2.1-0.6s-1.6,0.2-2.1,0.5
					c-0.4,0.3-0.6,0.8-0.6,1.3c0,0.4,0.2,0.8,0.5,1c0.3,0.3,1.1,0.6,2.4,0.8c1.3,0.3,2.1,0.5,2.6,0.8c0.7,0.3,1.2,0.7,1.5,1.2
					s0.5,1,0.5,1.7c0,0.6-0.2,1.2-0.5,1.8c-0.4,0.6-0.9,1-1.6,1.3s-1.4,0.5-2.3,0.5c-1.1,0-2-0.2-2.7-0.5s-1.3-0.8-1.7-1.4
					C112.5,55.3,112.3,54.6,112.3,53.8z"/>
			</g>
			<g>
				<path class="st2" d="M126.8,57.6V47.2h-3.9v-1.4h9.4v1.4h-3.9v10.4H126.8z"/>
			</g>
			<g>
				<path class="st2" d="M136,57.6l4.5-11.8h1.7l4.8,11.8h-1.8l-1.3-3.6H139l-1.3,3.6H136z M139.4,52.7h4l-1.2-3.3
					c-0.4-1-0.7-1.8-0.8-2.5c-0.2,0.8-0.4,1.5-0.6,2.3L139.4,52.7z"/>
			</g>
			<g>
				<path class="st2" d="M156.1,45.8h1.6v6.8c0,1.2-0.1,2.1-0.4,2.8c-0.3,0.7-0.8,1.3-1.5,1.7s-1.6,0.7-2.8,0.7
					c-1.1,0-2-0.2-2.7-0.6c-0.7-0.4-1.2-0.9-1.5-1.7c-0.3-0.7-0.5-1.7-0.5-3v-6.8h1.6v6.8c0,1,0.1,1.8,0.3,2.3s0.5,0.9,1,1.1
					c0.5,0.3,1,0.4,1.7,0.4c1.2,0,2-0.3,2.5-0.8s0.7-1.5,0.7-3L156.1,45.8L156.1,45.8z"/>
			</g>
			<g>
				<path class="st2" d="M163.2,57.6V47.2h-3.9v-1.4h9.4v1.4h-3.9v10.4H163.2z"/>
			</g>
			<g>
				<path class="st2" d="M169.5,51.8c0-2,0.5-3.5,1.6-4.6s2.4-1.7,4.1-1.7c1.1,0,2.1,0.3,3,0.8s1.5,1.2,2,2.2c0.5,0.9,0.7,2,0.7,3.2
					s-0.2,2.3-0.7,3.2s-1.2,1.7-2.1,2.1c-0.9,0.5-1.8,0.7-2.9,0.7c-1.1,0-2.1-0.3-3-0.8s-1.5-1.3-2-2.2
					C169.8,53.9,169.5,52.9,169.5,51.8z M171.2,51.9c0,1.4,0.4,2.5,1.1,3.4c0.8,0.8,1.7,1.2,2.9,1.2s2.1-0.4,2.9-1.2s1.1-2,1.1-3.5
					c0-1-0.2-1.8-0.5-2.5s-0.8-1.3-1.4-1.7c-0.6-0.4-1.3-0.6-2.1-0.6c-1.1,0-2.1,0.4-2.9,1.1S171.2,50.1,171.2,51.9z"/>
			</g>
			<g>
				<path class="st2" d="M182.8,57.6V45.8h2.4l2.8,8.4c0.3,0.8,0.4,1.4,0.6,1.8c0.1-0.4,0.3-1.1,0.6-1.9l2.8-8.2h2.1v11.8h-1.5v-9.9
					l-3.4,9.9h-1.4l-3.4-10.1v10.1L182.8,57.6L182.8,57.6z"/>
			</g>
			<g>
				<path class="st2" d="M196.9,57.6V45.8h1.6v11.8H196.9z"/>
			</g>
			<g>
				<path class="st2" d="M201.2,57.6V45.8h1.6l6.2,9.3v-9.3h1.5v11.8h-1.6l-6.2-9.3v9.3H201.2z"/>
			</g>
			<g>
				<path class="st2" d="M213.2,57.6V45.8h8.5v1.4h-7v3.6h6.5v1.4h-6.5v4h7.3v1.4C222,57.6,213.2,57.6,213.2,57.6z"/>
			</g>
			<g>
				<path class="st2" d="M224.2,57.6V45.8h5.2c1.1,0,1.9,0.1,2.4,0.3s1,0.6,1.3,1.1s0.5,1.1,0.5,1.8c0,0.8-0.3,1.5-0.8,2.1
					s-1.4,0.9-2.5,1.1c0.4,0.2,0.7,0.4,0.9,0.6c0.5,0.4,0.9,0.9,1.3,1.6l2.1,3.2h-2l-1.6-2.5c-0.5-0.7-0.8-1.3-1.1-1.6
					c-0.3-0.4-0.6-0.6-0.8-0.8s-0.5-0.3-0.7-0.3s-0.5-0.1-0.9-0.1h-1.8v5.2h-1.5V57.6z M225.7,51h3.4c0.7,0,1.3-0.1,1.7-0.2
					c0.4-0.1,0.7-0.4,0.9-0.7s0.3-0.7,0.3-1.1c0-0.6-0.2-1-0.6-1.4c-0.4-0.4-1-0.5-1.9-0.5h-3.7L225.7,51L225.7,51z"/>
			</g>
		</g>
		<g>
			<g>
				<path class="st1" d="M4,40.3V4.5h7.3c1.9,0,3.7,0.6,5.2,1.7c1.3,1,2.3,2.4,2.8,4.4c0.3,1.1,0.5,2.3,0.5,3.8
					c0,2.4-0.6,4.3-1.7,5.8c-0.5,0.6-1,1.1-1.7,1.4c1.1,0.5,2,1.4,2.8,2.7c0.5,0.9,0.9,2.1,1.1,3.5c0.1,0.7,0.2,1.6,0.2,2.5
					c0,2.3-0.4,4.2-1.2,5.8c-0.6,1.2-1.4,2.2-2.5,3c-1.2,0.8-2.5,1.3-3.7,1.3H4V40.3z M9.3,19.1h2c1.5,0,2.5-0.8,3-2.5
					c0.2-0.6,0.3-1.4,0.3-2.3c0-1.5-0.3-2.6-1-3.4c-0.6-0.7-1.4-1.1-2.3-1.1h-2V19.1z M9.3,35h2c1.6,0,2.8-0.9,3.4-2.8
					c0.2-0.6,0.3-1.4,0.3-2.2c0-2-0.3-3.5-1-4.4c-0.6-0.8-1.5-1.3-2.7-1.3h-2V35z"/>
			</g>
			<g>
				<path class="st1" d="M32.3,40.7c-2.1,0-4-0.8-5.5-2.5s-2.2-3.7-2.2-6V4.5h4.8v27.6c0,0.9,0.3,1.6,0.8,2.2c0.5,0.6,1.2,0.9,2,0.9
					s1.4-0.3,2-0.9c0.5-0.6,0.8-1.3,0.8-2.2V4.5h5.1v27.7c0,2.4-0.8,4.4-2.3,6.1C36.2,39.9,34.4,40.7,32.3,40.7z"/>
			</g>
			<g>
				<path class="st1" d="M60.1,31.4c0,2.5-0.5,4.6-1.7,6.4c-0.8,1.2-1.9,2-3.3,2.5c-0.8,0.3-1.7,0.4-2.7,0.4c-1.9,0-3.5-0.5-4.7-1.6
					c-1-0.9-1.9-2-2.5-3.5s-1-3.2-1.1-5.1l4.6-0.4c0.2,2.1,0.7,3.6,1.5,4.5c0.6,0.7,1.3,1,2,1c1.1,0,1.9-0.6,2.5-1.7
					c0.3-0.6,0.5-1.3,0.5-2.4c0-1.5-0.6-3-1.8-4.4c-1-1-2.4-2.5-4.3-4.5c-1.6-1.7-2.8-3.3-3.4-4.7c-0.7-1.5-1.1-3.2-1.1-5
					c0-3.3,1-5.7,3-7.4c1.2-1,2.7-1.5,4.5-1.5c1.7,0,3.2,0.4,4.5,1.3c1,0.7,1.7,1.6,2.3,2.8s0.9,2.6,1.1,4.1l-4.7,0.9
					c-0.1-1.5-0.5-2.6-1.1-3.4c-0.4-0.6-1.1-0.9-1.9-0.9c-0.9,0-1.6,0.4-2,1.3c-0.4,0.7-0.6,1.6-0.6,2.6c0,1.6,0.6,3.3,1.9,5
					c0.5,0.6,1.2,1.4,2.2,2.3c1.1,1,1.9,1.8,2.2,2.2c1.2,1.3,2.1,2.6,2.8,3.9c0.3,0.6,0.6,1.2,0.7,1.7
					C59.8,29.3,60.1,30.4,60.1,31.4z"/>
			</g>
			<g>
				<path class="st1" d="M79.4,31.7c0,2.4-0.7,4.4-2.2,6.1s-3.3,2.5-5.4,2.5h-7.6V4.5h7.6c2.1,0,3.9,0.8,5.4,2.5s2.2,3.7,2.2,6V31.7
					z M69,35h2.9c0.8,0,1.4-0.3,2-0.9c0.5-0.6,0.8-1.3,0.8-2.2V13.1c0-0.9-0.3-1.6-0.8-2.2c-0.6-0.6-1.2-0.9-2-0.9H69V35z"/>
			</g>
			<g>
				<path class="st1" d="M97.1,4.5c2.4,0,4.3,0.8,5.7,2.5c1.3,1.6,2,3.6,2,6.1v5.2c0,2.4-0.7,4.4-2.2,6.1s-3.3,2.5-5.4,2.5h-2.8
					v13.5h-4.9V4.5H97.1z M100,13.1c0-0.9-0.3-1.7-0.8-2.3s-1.2-0.9-2-0.9h-2.9v11.5h2.9c0.8,0,1.4-0.3,2-0.9
					c0.5-0.6,0.8-1.3,0.8-2.2V13.1z"/>
			</g>
			<g>
				<path class="st1" d="M111.7,32.1l-1.2,8.2h-5.1l5.5-35.8h6.7l5.4,35.8h-5.1l-1.1-8.2H111.7z M114.3,12.7l-1.8,14.1h3.6
					L114.3,12.7z"/>
			</g>
			<g>
				<path class="st1" d="M128.4,25.3l-6.5-20.8h5.4l3.6,12.9l3.6-12.9h5.4l-6.5,20.8v15h-4.9L128.4,25.3L128.4,25.3z"/>
			</g>
			<g>
				<path class="st1" d="M149.6,40.8c-2.1,0-4-0.8-5.5-2.5s-2.3-3.7-2.3-6V12.7c0-2.4,0.8-4.4,2.3-6.1c1.5-1.7,3.3-2.5,5.5-2.5
					c2.1,0,4,0.8,5.5,2.5s2.2,3.7,2.2,6.1v4.1h-5v-4.2c0-0.9-0.3-1.6-0.8-2.2c-0.5-0.6-1.2-0.9-2-0.9s-1.4,0.3-2,0.9
					c-0.5,0.6-0.8,1.3-0.8,2.2v19.6c0,0.9,0.3,1.6,0.8,2.2c0.5,0.6,1.2,0.9,2,0.9s1.4-0.3,2-0.9c0.5-0.6,0.8-1.3,0.8-2.2v-4.9h5v5
					c0,2.4-0.8,4.4-2.3,6.1C153.5,40,151.7,40.8,149.6,40.8z"/>
			</g>
			<g>
				<path class="st1" d="M166.2,25.1v15.2h-4.9V4.5h4.9v15.2h5.9V4.5h4.9v35.8h-4.9V25.1H166.2z"/>
			</g>
			<g>
				<path class="st1" d="M181.2,40.3V4.5H195v5.4h-9v9.8h6.6v5.4H186v9.8h9v5.4C195,40.3,181.2,40.3,181.2,40.3z"/>
			</g>
			<g>
				<path class="st1" d="M206.1,40.8c-2.1,0-4-0.8-5.5-2.5s-2.3-3.7-2.3-6V12.7c0-2.4,0.8-4.4,2.3-6.1c1.5-1.7,3.3-2.5,5.5-2.5
					c2.1,0,4,0.8,5.5,2.5s2.2,3.7,2.2,6.1v4.1h-5v-4.2c0-0.9-0.3-1.6-0.8-2.2c-0.5-0.6-1.2-0.9-2-0.9s-1.4,0.3-2,0.9
					c-0.5,0.6-0.8,1.3-0.8,2.2v19.6c0,0.9,0.3,1.6,0.8,2.2c0.5,0.6,1.2,0.9,2,0.9s1.4-0.3,2-0.9c0.5-0.6,0.8-1.3,0.8-2.2v-4.9h5v5
					c0,2.4-0.8,4.4-2.3,6.1C210.1,40,208.2,40.8,206.1,40.8z"/>
			</g>
			<g>
				<path class="st1" d="M222.7,29v11.4h-4.9V4.5h4.9v12.8l5.9-12.8h5.2l-6.7,14.6l7.8,21.2h-5.7l-5.1-14.6L222.7,29z"/>
			</g>
		</g>
	</g>
	<g>
		
			<pattern  id="SVGID_1_" xlink:href="#New_Pattern_Swatch_1" patternTransform="matrix(4.607783e-02 0 0 4.607783e-02 -7691.1802 -7938.5581)">
		</pattern>
		<path class="st3" d="M241.4,30.9c0-11.2,9.1-20.3,20.4-20.3c11.2,0,20.3,9.1,20.3,20.4c0,11.2-9.1,20.3-20.4,20.3
			C250.5,51.2,241.4,42.1,241.4,30.9z M266.9,22.3c-4.6,4.6-9.2,9.2-13.8,13.8c1.1,1.1,2.3,2.3,3.4,3.4c4.6-4.6,9.2-9.2,13.8-13.8
			C269.2,24.6,268.1,23.4,266.9,22.3z M261.7,44.7c4.6-4.6,9.2-9.2,13.8-13.8c-1.1-1.1-2.3-2.3-3.4-3.4c-4.6,4.6-9.2,9.2-13.8,13.8
			C259.4,42.4,260.6,43.6,261.7,44.7z M261.7,17.1c-2.9,2.9-5.8,5.8-8.6,8.6c1.1,1.1,2.3,2.3,3.4,3.4c2.9-2.9,5.7-5.7,8.6-8.6
			C264,19.4,262.9,18.2,261.7,17.1z M251.3,34.3c1.1-1.1,2.3-2.3,3.4-3.4c-1.1-1.1-2.3-2.3-3.4-3.4c-1.1,1.1-2.3,2.3-3.4,3.4
			C249.1,32,250.2,33.2,251.3,34.3z"/>
	</g>
</g>
</svg>
